<svg xmlns="http://www.w3.org/2000/svg" viewBox="0 0 800 600" width="800" height="600" role="img" aria-label="An orange classified, with the pooling ladder beneath it">
  <defs>
    <linearGradient id="bg" x1="0" y1="0" x2="0" y2="1">
      <stop offset="0" stop-color="#252a36"/>
      <stop offset="1" stop-color="#121419"/>
    </linearGradient>
    <radialGradient id="glowT" cx="0.5" cy="0.5" r="0.5">
      <stop offset="0" stop-color="#17A589" stop-opacity="0.30"/>
      <stop offset="1" stop-color="#17A589" stop-opacity="0"/>
    </radialGradient>
    <radialGradient id="glowB" cx="0.5" cy="0.5" r="0.5">
      <stop offset="0" stop-color="#2E86C1" stop-opacity="0.22"/>
      <stop offset="1" stop-color="#2E86C1" stop-opacity="0"/>
    </radialGradient>

    <g id="f-apple">
      <path d="M50 33 C 45 25 33 26 28 38 C 23 51 27 69 37 80 C 43 87 48 85 50 81 C 52 85 57 87 63 80 C 73 69 77 51 72 38 C 67 26 55 25 50 33 Z"/>
      <path d="M48 34 C 47 25 49 18 54 13 L 58 16 C 53 21 52 27 52 34 Z" fill="#0d1218" fill-opacity="0.5"/>
      <path d="M53 23 C 61 14 72 13 79 16 C 76 25 67 31 56 28 Z"/>
    </g>
    <g id="f-avocado">
      <path d="M50 18 C 62 18 71 32 71 48 C 71 69 62 85 50 85 C 38 85 29 69 29 48 C 29 32 38 18 50 18 Z"/>
      <path d="M50 26 C 59 26 64 37 64 49 C 64 66 58 78 50 78 C 42 78 36 66 36 49 C 36 37 41 26 50 26 Z" fill="#ffffff" fill-opacity="0.28"/>
      <circle cx="50" cy="56" r="11.5" fill="#0d1218" fill-opacity="0.5"/>
    </g>
    <g id="f-banana">
      <path d="M20 26 C 20 22 28 21 30 26 C 34 50 50 66 74 66 C 79 66 82 72 79 76 C 46 82 24 58 20 26 Z"/>
      <path d="M27 32 C 32 52 48 63 68 64 C 50 68 33 54 27 32 Z" fill="#ffffff" fill-opacity="0.20"/>
    </g>
    <g id="f-kiwi">
      <circle cx="50" cy="52" r="31"/>
      <circle cx="50" cy="52" r="25" fill="#ffffff" fill-opacity="0.30"/>
      <ellipse cx="50" cy="52" rx="6" ry="7" fill="#ffffff" fill-opacity="0.55"/>
      <g fill="#0d1218" fill-opacity="0.7">
        <circle cx="50" cy="36.5" r="1.9"/><circle cx="59.1" cy="39.5" r="1.9"/>
        <circle cx="64.7" cy="47.2" r="1.9"/><circle cx="64.7" cy="56.8" r="1.9"/>
        <circle cx="59.1" cy="64.5" r="1.9"/><circle cx="50" cy="67.5" r="1.9"/>
        <circle cx="40.9" cy="64.5" r="1.9"/><circle cx="35.3" cy="56.8" r="1.9"/>
        <circle cx="35.3" cy="47.2" r="1.9"/><circle cx="40.9" cy="39.5" r="1.9"/>
      </g>
    </g>
    <g id="f-lemon">
      <ellipse cx="50" cy="52" rx="31" ry="21" transform="rotate(-16 50 52)"/>
      <path d="M22 62 L 8 71 L 23 66 Z"/>
      <path d="M78 42 L 92 33 L 77 38 Z"/>
      <ellipse cx="42" cy="45" rx="9" ry="5" transform="rotate(-16 42 45)" fill="#ffffff" fill-opacity="0.22"/>
    </g>
    <g id="f-orange">
      <circle cx="50" cy="52" r="31"/>
      <circle cx="50" cy="52" r="25" fill="#ffffff" fill-opacity="0.26"/>
      <g stroke="#0d1218" stroke-opacity="0.45" stroke-width="2.5" stroke-linecap="round">
        <path d="M50 52 L 75 52M50 52 L 62.5 73.6M50 52 L 37.5 73.6M50 52 L 25 52M50 52 L 37.5 30.4M50 52 L 62.5 30.4"/>
      </g>
      <circle cx="50" cy="52" r="25" fill="none" stroke="#0d1218" stroke-opacity="0.3" stroke-width="2"/>
    </g>
  </defs>

  <rect width="800" height="600" fill="url(#bg)"/>
  <g stroke="#eef2f7" stroke-opacity="0.035" stroke-width="1">
    <path d="M0 80H800M0 160H800M0 240H800M0 320H800M0 400H800M0 480H800"/>
    <path d="M80 0V600M160 0V600M240 0V600M320 0V600M400 0V600M480 0V600M560 0V600M640 0V600M720 0V600"/>
  </g>

  <ellipse cx="250" cy="290" rx="300" ry="270" fill="url(#glowT)"/>
  <ellipse cx="640" cy="300" rx="230" ry="250" fill="url(#glowB)"/>

  <g>
    <rect x="96" y="110" width="300" height="300" rx="18" fill="#1b2330" stroke="#2a3242" stroke-width="2"/>
    <use href="#f-orange" fill="#25dcb8" transform="translate(118.0,132.0) scale(2.56)"/>
    <rect x="134" y="148" width="224" height="224" rx="6" fill="none" stroke="#25dcb8" stroke-width="3" stroke-opacity="0.9"/>
    <g fill="none" stroke="#eef2f7" stroke-width="4" stroke-linecap="round">
      <path d="M134 172 V148 H158"/>
      <path d="M358 172 V148 H334"/>
      <path d="M134 348 V372 H158"/>
      <path d="M358 348 V372 H334"/>
    </g>
  </g>

  <g fill="none" stroke="#9aa4b0" stroke-width="2" stroke-opacity="0.42" stroke-dasharray="5 7">
    <path d="M408 260 C 470 260 470 147 508 147"/>
    <path d="M408 260 C 470 260 470 293 508 293"/>
    <path d="M408 260 C 470 260 470 439 508 439"/>
  </g>

  <g>
    <rect x="520" y="88" width="118" height="118" rx="12" fill="#1b2330" stroke="#25dcb8" stroke-width="2"/>
    <use href="#f-orange" fill="#25dcb8" transform="translate(531.5,99.5) scale(0.95)"/>
    <rect x="678" y="88" width="20" height="118" rx="10" fill="#1b2330"/>
    <rect x="678" y="111.6" width="20" height="94.4" rx="10" fill="#25dcb8"/>
    <rect x="520" y="234" width="118" height="118" rx="12" fill="#1b2330" stroke="#2a3242" stroke-width="1.5"/>
    <use href="#f-kiwi" fill="#46536b" transform="translate(531.5,245.5) scale(0.95)"/>
    <rect x="678" y="234" width="20" height="118" rx="10" fill="#1b2330"/>
    <rect x="678" y="337.8" width="20" height="14.2" rx="10" fill="#5c6b7f"/>
    <rect x="520" y="380" width="118" height="118" rx="12" fill="#1b2330" stroke="#2a3242" stroke-width="1.5"/>
    <use href="#f-avocado" fill="#46536b" transform="translate(531.5,391.5) scale(0.95)"/>
    <rect x="678" y="380" width="20" height="118" rx="10" fill="#1b2330"/>
    <rect x="678" y="488.6" width="20" height="9.4" rx="10" fill="#5c6b7f"/>
  </g>

  <g>
    <rect x="96" y="449" width="9" height="9" rx="2" fill="#25dcb8" fill-opacity="0.35"/>
    <rect x="107" y="449" width="9" height="9" rx="2" fill="#25dcb8" fill-opacity="0.60"/>
    <rect x="118" y="449" width="9" height="9" rx="2" fill="#25dcb8" fill-opacity="0.85"/>
    <rect x="129" y="449" width="9" height="9" rx="2" fill="#25dcb8" fill-opacity="0.35"/>
    <rect x="140" y="449" width="9" height="9" rx="2" fill="#25dcb8" fill-opacity="0.60"/>
    <rect x="151" y="449" width="9" height="9" rx="2" fill="#25dcb8" fill-opacity="0.85"/>
    <rect x="162" y="449" width="9" height="9" rx="2" fill="#25dcb8" fill-opacity="0.35"/>
    <rect x="173" y="449" width="9" height="9" rx="2" fill="#25dcb8" fill-opacity="0.60"/>
    <rect x="96" y="460" width="9" height="9" rx="2" fill="#25dcb8" fill-opacity="0.60"/>
    <rect x="107" y="460" width="9" height="9" rx="2" fill="#25dcb8" fill-opacity="0.85"/>
    <rect x="118" y="460" width="9" height="9" rx="2" fill="#25dcb8" fill-opacity="0.35"/>
    <rect x="129" y="460" width="9" height="9" rx="2" fill="#25dcb8" fill-opacity="0.60"/>
    <rect x="140" y="460" width="9" height="9" rx="2" fill="#25dcb8" fill-opacity="0.85"/>
    <rect x="151" y="460" width="9" height="9" rx="2" fill="#25dcb8" fill-opacity="0.35"/>
    <rect x="162" y="460" width="9" height="9" rx="2" fill="#25dcb8" fill-opacity="0.60"/>
    <rect x="173" y="460" width="9" height="9" rx="2" fill="#25dcb8" fill-opacity="0.85"/>
    <rect x="96" y="471" width="9" height="9" rx="2" fill="#25dcb8" fill-opacity="0.85"/>
    <rect x="107" y="471" width="9" height="9" rx="2" fill="#25dcb8" fill-opacity="0.35"/>
    <rect x="118" y="471" width="9" height="9" rx="2" fill="#25dcb8" fill-opacity="0.60"/>
    <rect x="129" y="471" width="9" height="9" rx="2" fill="#25dcb8" fill-opacity="0.85"/>
    <rect x="140" y="471" width="9" height="9" rx="2" fill="#25dcb8" fill-opacity="0.35"/>
    <rect x="151" y="471" width="9" height="9" rx="2" fill="#25dcb8" fill-opacity="0.60"/>
    <rect x="162" y="471" width="9" height="9" rx="2" fill="#25dcb8" fill-opacity="0.85"/>
    <rect x="173" y="471" width="9" height="9" rx="2" fill="#25dcb8" fill-opacity="0.35"/>
    <rect x="96" y="482" width="9" height="9" rx="2" fill="#25dcb8" fill-opacity="0.35"/>
    <rect x="107" y="482" width="9" height="9" rx="2" fill="#25dcb8" fill-opacity="0.60"/>
    <rect x="118" y="482" width="9" height="9" rx="2" fill="#25dcb8" fill-opacity="0.85"/>
    <rect x="129" y="482" width="9" height="9" rx="2" fill="#25dcb8" fill-opacity="0.35"/>
    <rect x="140" y="482" width="9" height="9" rx="2" fill="#25dcb8" fill-opacity="0.60"/>
    <rect x="151" y="482" width="9" height="9" rx="2" fill="#25dcb8" fill-opacity="0.85"/>
    <rect x="162" y="482" width="9" height="9" rx="2" fill="#25dcb8" fill-opacity="0.35"/>
    <rect x="173" y="482" width="9" height="9" rx="2" fill="#25dcb8" fill-opacity="0.60"/>
    <rect x="216" y="451" width="18" height="18" rx="2" fill="#25dcb8" fill-opacity="0.26"/>
    <rect x="236" y="451" width="18" height="18" rx="2" fill="#25dcb8" fill-opacity="0.45"/>
    <rect x="256" y="451" width="18" height="18" rx="2" fill="#25dcb8" fill-opacity="0.64"/>
    <rect x="276" y="451" width="18" height="18" rx="2" fill="#25dcb8" fill-opacity="0.26"/>
    <rect x="216" y="471" width="18" height="18" rx="2" fill="#25dcb8" fill-opacity="0.45"/>
    <rect x="236" y="471" width="18" height="18" rx="2" fill="#25dcb8" fill-opacity="0.64"/>
    <rect x="256" y="471" width="18" height="18" rx="2" fill="#25dcb8" fill-opacity="0.26"/>
    <rect x="276" y="471" width="18" height="18" rx="2" fill="#25dcb8" fill-opacity="0.45"/>
    <rect x="328" y="455" width="30" height="30" rx="2" fill="#25dcb8" fill-opacity="0.17"/>
    <rect x="360" y="455" width="30" height="30" rx="2" fill="#25dcb8" fill-opacity="0.30"/>
    <g fill="none" stroke="#5c6b7f" stroke-width="2" stroke-linecap="round">
      <path d="M190 470 H 208"/><path d="M202 464 L 208 470 L 202 476"/>
      <path d="M302 470 H 320"/><path d="M314 464 L 320 470 L 314 476"/>
    </g>
  </g>
</svg>
